<?xml version="1.0" encoding="UTF-8" standalone="no"?>
<!-- Generator: Adobe Illustrator 21.0.2, SVG Export Plug-In . SVG Version: 6.00 Build 0)  -->

<svg
     xmlns:dc="http://purl.org/dc/elements/1.1/"
     xmlns:cc="http://creativecommons.org/ns#"
     xmlns:rdf="http://www.w3.org/1999/02/22-rdf-syntax-ns#"
     xmlns:svg="http://www.w3.org/2000/svg"
     xmlns="http://www.w3.org/2000/svg"
     xmlns:sodipodi="http://sodipodi.sourceforge.net/DTD/sodipodi-0.dtd"
     xmlns:inkscape="http://www.inkscape.org/namespaces/inkscape"
     version="1.1"
     id="Calque_1"
     x="0px" y="0px"
     width="auto" height="auto"
     preserveAspectRatio="xMinYMin"
     viewBox="0 0 212.9 57.8"
     xml:space="preserve"
     sodipodi:docname="Sekoia_white_logo.svg"
     inkscape:version="0.92.3 (2405546, 2018-03-11)"><metadata
     id="metadata91"><rdf:RDF><cc:Work
             rdf:about=""><dc:format>image/svg+xml</dc:format><dc:type
                 rdf:resource="http://purl.org/dc/dcmitype/StillImage" /><dc:title></dc:title></cc:Work></rdf:RDF></metadata><defs
     id="defs89" /><sodipodi:namedview
     pagecolor="#ffffff"
     bordercolor="#666666"
     borderopacity="1"
     objecttolerance="10"
     gridtolerance="10"
     guidetolerance="10"
     inkscape:pageopacity="0"
     inkscape:pageshadow="2"
     inkscape:window-width="1920"
     inkscape:window-height="1051"
     id="namedview87"
     showgrid="false"
     inkscape:zoom="3.39"
     inkscape:cx="84.44"
     inkscape:cy="9.41"
     inkscape:window-x="1911"
     inkscape:window-y="-9"
     inkscape:window-maximized="1"
     inkscape:current-layer="g84"
     fit-margin-top="0"
     fit-margin-left="0"
     fit-margin-right="0"
     fit-margin-bottom="0" />
<style
     type="text/css"
     id="style2">
	.st0{fill:#575756;}
	.st1{fill:#0196AB;}
</style>
<g
     id="g84">
	
	<g
     id="g82">
		<g
     id="g78">
			<g
     id="g76">
				<g
     id="g62"
     style="fill:white;fill-opacity:1">
					<path
     class="st1"
     d="m 19.4,57.8 c -2.9,0 -5.5,-0.3 -7.9,-1 -2.4,-0.6 -4.4,-1.6 -6.1,-2.9 -1.7,-1.3 -3,-3.1 -4,-5.1 -0.9,-2.1 -1.4,-4.6 -1.4,-7.5 v -0.5 h 6.3 v 0.5 c 0.1,4 1.2,7 3.5,8.8 2.3,1.9 5.6,2.8 9.6,2.8 1.3,0 2.7,-0.2 4.1,-0.5 1.4,-0.3 2.6,-0.8 3.7,-1.4 1.1,-0.6 2,-1.5 2.8,-2.5 0.7,-1 1.1,-2.2 1.1,-3.7 0,-1.5 -0.3,-2.7 -1,-3.7 -0.7,-1 -1.6,-1.8 -2.7,-2.4 -1.2,-0.6 -2.6,-1.1 -4.2,-1.5 -1.7,-0.4 -3.5,-0.8 -5.3,-1.3 -2.2,-0.5 -4.2,-1 -6.2,-1.5 -2,-0.5 -3.7,-1.2 -5.2,-2.1 -1.5,-0.9 -2.7,-2.1 -3.6,-3.6 -0.9,-1.5 -1.4,-3.4 -1.4,-5.7 0,-1.7 0.4,-3.3 1.2,-4.8 0.8,-1.5 1.9,-2.8 3.3,-4 1.4,-1.1 3.2,-2 5.3,-2.6 2.1,-0.6 4.4,-1 7.1,-1 2.4,0 4.7,0.3 6.9,0.8 2.2,0.5 4.1,1.4 5.6,2.6 1.6,1.2 2.9,2.7 3.8,4.5 0.9,1.8 1.4,4.1 1.4,6.7 v 0.5 h -6.1 v -0.5 c 0,-3.5 -1.1,-6 -3.2,-7.6 -2.2,-1.6 -5,-2.4 -8.3,-2.4 -2.4,0 -4.3,0.3 -5.7,0.9 -1.4,0.6 -2.5,1.3 -3.2,2.1 -0.7,0.8 -1.2,1.6 -1.4,2.4 -0.2,0.8 -0.4,1.5 -0.4,1.9 0,1.8 0.5,3.1 1.6,4.1 1.1,1 2.5,1.9 4.1,2.5 1.6,0.6 3.4,1.1 5.3,1.4 1.9,0.3 3.6,0.7 5,1.1 1.6,0.5 3.2,1 4.8,1.5 1.6,0.6 3.1,1.3 4.4,2.2 1.3,0.9 2.4,2.1 3.2,3.4 0.8,1.4 1.2,3.2 1.2,5.3 0,2.5 -0.6,4.6 -1.7,6.4 -1.1,1.7 -2.5,3.2 -4.2,4.2 -1.7,1 -3.6,1.8 -5.7,2.3 -2.2,0.6 -4.3,0.9 -6.4,0.9 z"
     id="path60"
     inkscape:connector-curvature="0"
     style="fill:white;fill-opacity:1" />
				</g>
				<g
     id="g66"
     style="fill:white;fill-opacity:1">
					<path
     class="st1"
     d="m 61,57.8 c -3.2,0 -6.2,-0.6 -8.8,-1.8 -2.6,-1.2 -4.8,-2.8 -6.6,-4.9 -1.8,-2.1 -3.2,-4.5 -4.1,-7.2 -0.9,-2.7 -1.4,-5.7 -1.4,-8.8 0,-17.1 11.6,-24.3 20.4,-24.3 8.3,0 14.4,4 17.6,10.1 3.1,5.7 2.8,14.4 2.8,14.4 h -34.5 c -0.1,2.1 0,4.9 1.8,8.9 1,2.2 1.7,3.1 2.9,4.3 1.2,1.2 2.6,2.2 4.3,2.9 1.7,0.7 3.6,1.1 5.7,1.1 1.8,0 3.5,-0.3 5,-0.9 4,-1.6 6,-4.2 7,-6 1.3,-2.2 1.7,-5.4 1.7,-5.4 h 5.7 c 0,0 -0.4,8.1 -6.3,13.1 -1.6,1.3 -6,4.5 -13.2,4.5 z m 0,-42 c -10.9,0 -13.5,10.4 -14.2,14.8 h 27.7 c -0.3,-4.8 -2.6,-14.8 -13.5,-14.8 z"
     id="path64"
     inkscape:connector-curvature="0"
     style="fill:white;fill-opacity:1" />
				</g>
				<g
     id="g70"
     style="fill:white;fill-opacity:1">
					<path
     class="st1"
     d="m 165.3,56.7 h -6.5 v -41.1 h 6.5 z"
     id="path68"
     inkscape:connector-curvature="0"
     style="fill:white;fill-opacity:1" />
				</g>
				<g
     id="g74"
     style="fill:white;fill-opacity:1">
					<path
     class="st1"
     d="m 191.8,57.8 c -3.2,0 -6.2,-0.6 -8.8,-1.8 -2.6,-1.2 -4.8,-2.8 -6.6,-4.9 -1.8,-2.1 -3.2,-4.5 -4.2,-7.2 -1,-2.7 -1.5,-5.7 -1.5,-8.9 0,-3.3 0.5,-6.4 1.4,-9.4 0.9,-2.9 2.3,-5.6 4.1,-7.8 1.8,-2.2 4.1,-4 6.9,-5.3 2.7,-1.3 5.9,-1.9 9.4,-1.9 3,0 5.9,0.6 8.5,1.8 2.2,1 4,2.4 5.4,4.3 v -5 h 6.5 v 44.9 h -6.4 v -5.6 c -1.5,1.9 -3.3,3.5 -5.5,4.7 -2.6,1.4 -5.8,2.1 -9.2,2.1 z m 1.6,-41.8 c -3,0 -5.5,0.6 -7.6,1.7 -2.1,1.1 -3.7,2.5 -5,4.3 -1.3,1.8 -2.2,3.8 -2.7,6.1 -0.6,2.3 -0.8,4.6 -0.8,7 0,2.4 0.3,4.7 1,6.8 0.6,2.1 1.6,4 2.9,5.6 1.3,1.6 2.9,2.8 4.8,3.7 1.9,0.9 4.2,1.4 6.8,1.4 1.8,0 3.5,-0.3 5.2,-0.8 1.7,-0.5 3.2,-1.3 4.5,-2.4 1.3,-1 2.3,-2.3 3.1,-3.7 0.8,-1.4 1.2,-3.1 1.2,-4.9 v -14.4 c 0,-1.4 -0.4,-2.8 -1.2,-4.1 -0.8,-1.3 -1.8,-2.4 -3.1,-3.3 -1.3,-0.9 -2.7,-1.7 -4.3,-2.2 -1.8,-0.5 -3.3,-0.8 -4.8,-0.8 z"
     id="path72"
     inkscape:connector-curvature="0"
     style="fill:white;fill-opacity:1" />
				</g>
			</g>
		</g>
		<path
     class="st1"
     d="m 132.7,5.2 c 9.9,-0.3 17.2,2.3 25.2,6.6 h 7 c -6.2,-4.5 -17.7,-11.8 -32.4,-11.8 -18.5,0 -30.3,13.2 -40.2,26.7 v -14.9 h -6 v 44.9 h 6 v -19.2 c 9.9,2.8 19.6,20.2 38.9,20.2 0,0 0,0 0,0 0.1,0 0.2,0 0.3,0 3.5,0 6.7,-0.6 9.3,-1.9 2.6,-1.3 4.9,-3 6.7,-5.2 1.8,-2.2 3.2,-4.7 4.1,-7.5 0.9,-2.8 1.3,-5.8 1.3,-8.9 0,-3 -0.5,-6 -1.3,-8.8 -0.9,-2.8 -2.2,-5.3 -4,-7.5 -1.8,-2.2 -4,-3.9 -6.7,-5.3 -2.7,-1.3 -5.8,-2 -9.3,-2 -3.5,0 -6.7,0.7 -9.4,2 -2.7,1.3 -4.9,3.1 -6.7,5.3 -1.8,2.2 -3.1,4.7 -4,7.5 -0.9,2.8 -1.3,5.8 -1.3,8.8 0,3.1 0.5,6 1.3,8.9 0.4,1.4 1,2.6 1.6,3.9 -5.5,-4.4 -10.5,-10.7 -18.6,-14 10,-14 21.1,-27.4 38.2,-27.8 z m -15.1,22.3 c 0.6,-2.2 1.5,-4.1 2.8,-5.8 1.2,-1.7 2.8,-3 4.7,-4.1 1.9,-1 4.1,-1.6 6.6,-1.6 2.5,0 4.6,0.5 6.5,1.6 1.9,1 3.4,2.4 4.6,4.1 1.2,1.7 2.1,3.6 2.7,5.8 0.6,2.2 0.9,4.5 0.9,6.7 0,2.3 -0.3,4.6 -0.9,6.8 -0.6,2.2 -1.5,4.1 -2.7,5.8 -1.2,1.7 -2.7,3 -4.6,4 -1.8,1 -4,1.5 -6.5,1.5 -2.5,0 -4.7,-0.5 -6.6,-1.5 -1.9,-1 -3.4,-2.4 -4.7,-4.1 -1.2,-1.7 -2.2,-3.7 -2.8,-5.8 -0.6,-2.2 -0.9,-4.5 -0.9,-6.8 0,-2.2 0.3,-4.4 0.9,-6.6 z"
     id="path80"
     inkscape:connector-curvature="0"
     style="fill:white;fill-opacity:1" />
	</g>
</g>
</svg>